<svg width="200" height="48" viewBox="0 0 200 48" fill="none" xmlns="http://www.w3.org/2000/svg">
<path d="M21.7496 18.0183C20.3268 17.4491 18.6928 16.8799 16.2041 16.8799C11.9407 16.8799 9.59276 19.2323 9.59276 25.0704V47.1488H6.9633C2.69985 47.1488 0 45.013 0 41.0234V23.3628C0 15.6709 4.05229 8.33667 14.1428 8.33667C20.0402 8.33667 22.1016 11.6814 22.1016 14.603V18.0233H21.7446L21.7496 18.0183Z" fill="#2B486C"/>
<path d="M42.5037 7.83289C54.0171 7.83289 60.6284 17.0914 60.6284 27.2717C60.6284 38.807 54.0171 47.9949 41.649 47.9949C30.1357 47.9949 23.5244 38.807 23.5244 28.6267C23.5244 17.0914 30.1357 7.83289 42.5037 7.83289ZM41.649 16.3761C36.1739 16.3761 33.4037 20.9348 33.4037 27.2717C33.4037 34.893 36.1739 39.4467 42.5037 39.4467C48.0492 39.4467 50.7491 34.888 50.7491 28.6217C50.7491 20.9298 47.9034 16.371 41.649 16.371V16.3761Z" fill="#2B486C"/>
<path d="M101.282 27.2717C101.282 28.7628 101.171 30.2135 100.95 31.6139C97.0487 31.7398 94.907 27.2768 92.4937 24.6977C91.277 23.2772 89.7737 21.8315 87.9688 21.0306C84.5601 19.1114 84.5198 11.8074 84.6556 8.13015V8.12008C84.6757 8.04452 84.6857 7.96393 84.6857 7.88837C95.2589 8.66914 101.282 17.5498 101.282 27.2717Z" fill="#068464"/>
<path d="M100.825 32.3392C99.1403 41.3911 92.7954 47.9949 82.3077 47.9949C78.4968 47.9949 75.2187 46.9875 72.544 45.2748C73.5345 44.1767 74.8618 43.4262 76.365 42.9476C79.0096 42.0157 82.5591 41.9603 84.9824 40.026C87.0236 38.4242 87.3203 35.9458 87.1443 33.5179C88.0593 33.7093 88.9794 34.1072 89.7688 34.5404C91.0558 35.2708 92.3178 36.2279 93.082 37.5175C93.2077 37.7693 93.5998 37.593 93.4993 37.3311C92.4133 34.7671 89.7386 32.4097 86.9332 31.6138C86.8879 31.3015 86.8427 30.9992 86.7974 30.702C86.3047 27.5135 85.6712 24.4055 85.1433 21.3076C85.636 21.8617 86.2393 22.3603 86.9181 22.6777C87.3756 22.8842 87.8482 23.0454 88.2906 23.2973C89.4017 23.8917 90.4073 24.7833 91.3675 25.7454C94.0071 28.2842 96.7522 32.6666 100.825 32.3392Z" fill="#068464"/>
<path d="M70.8798 44.0508C67.2549 41.0234 65.0176 36.5403 64.374 31.6038C65.3896 32.3845 66.5007 33.0646 67.7426 33.5431C72.0814 35.3464 77.0387 33.4625 80.4675 30.6165C82.011 29.1355 82.7903 27.2818 83.1724 25.2971C83.7757 28.1633 84.364 31.0194 84.6908 33.8957C85.7818 41.8949 75.6812 38.0968 70.8798 44.0508Z" fill="#068464"/>
<path d="M80.8295 23.4082C80.6837 23.7003 80.5078 23.9623 80.2815 24.1839C79.6279 24.8085 78.4464 25.1511 77.8381 25.952C77.4811 26.3701 77.2398 26.8436 77.0286 27.3171C76.9532 27.4783 77.1945 27.6193 77.3001 27.4733C77.8632 26.6623 78.5621 26.0779 79.5223 25.8361C79.8542 25.7707 80.2111 25.6498 80.558 25.4835C80.1961 27.2365 79.4469 28.7225 78.0493 29.6745C73.464 33.2862 69.1453 33.1553 64.2584 30.5208C64.2081 29.8962 64.183 29.2615 64.183 28.6268C64.183 17.6909 70.1206 8.80013 81.282 7.90854C80.4826 9.36934 80.4324 10.9863 80.3921 12.5982C80.2715 15.4846 81.0608 19.736 80.8295 23.4082Z" fill="#068464"/>
<path d="M123.816 7.83289C135.329 7.83289 141.941 17.0914 141.941 27.2717C141.941 38.807 135.329 47.9949 122.961 47.9949C111.448 47.9949 104.837 38.807 104.837 28.6267C104.837 17.0914 111.448 7.83289 123.816 7.83289ZM122.961 16.3761C117.486 16.3761 114.716 20.9348 114.716 27.2717C114.716 34.893 117.486 39.4467 123.816 39.4467C129.361 39.4467 132.061 34.888 132.061 28.6217C132.061 20.9298 129.216 16.371 122.961 16.371V16.3761Z" fill="#2B486C"/>
<path d="M155.576 0V8.68927H168.869V12.6083C168.869 14.603 167.089 17.167 163.183 17.167H155.576V32.1931C155.576 37.18 157.778 39.0992 161.619 39.0992C164.676 39.0992 167.019 38.671 168.512 37.7442H168.869V41.1645C168.869 45.0835 166.023 47.5719 160.483 47.5719C150.814 47.5719 146.124 42.3029 146.124 33.3315V10.2559C146.124 3.84343 151.709 0 155.576 0Z" fill="#2B486C"/>
<path d="M184.007 48C176.968 48 171.709 44.3681 171.709 40.4491V36.107H172.066C174.128 38.0313 179.03 39.7389 183.58 39.7389C188.13 39.7389 190.543 38.3839 190.543 35.5378C190.543 33.3315 189.191 32.2636 182.584 31.3367C174.48 30.1983 170.573 26.9946 170.573 21.1514C170.573 13.9582 177.044 7.83289 186.848 7.83289C195.52 7.83289 199.075 12.3211 199.075 16.0235V19.6553H198.718C196.727 17.6606 192.323 16.094 187.773 16.094C181.946 16.094 180.096 17.8721 180.096 20.3656C180.096 22.2898 181.232 23.0706 187.773 24.1385C195.732 25.418 200 28.9088 200 35.0341C200 43.1541 194.314 47.9949 184.007 47.9949V48Z" fill="#2B486C"/>
</svg>
