<svg width="93" height="22" viewBox="0 0 93 22" fill="none" xmlns="http://www.w3.org/2000/svg">
<path d="M10.1136 8.25869C9.45196 7.99781 8.69216 7.73692 7.53492 7.73692C5.55241 7.73692 4.46063 8.8151 4.46063 11.4909V21.6102H3.23793C1.25543 21.6102 0 20.6313 0 18.8027V10.7083C0 7.18282 1.88431 3.82129 6.5764 3.82129C9.3187 3.82129 10.2772 5.35429 10.2772 6.69337V8.261H10.1112L10.1136 8.25869Z" fill="white"/>
<path d="M19.7641 3.58984C25.1178 3.58984 28.1921 7.83331 28.1921 12.4993C28.1921 17.7863 25.1178 21.9975 19.3667 21.9975C14.013 21.9975 10.9387 17.7863 10.9387 13.1203C10.9387 7.83332 14.013 3.58984 19.7641 3.58984ZM19.3667 7.50547C16.8208 7.50547 15.5326 9.59489 15.5326 12.4993C15.5326 15.9924 16.8208 18.0795 19.7641 18.0795C22.3428 18.0795 23.5982 15.9901 23.5982 13.118C23.5982 9.59258 22.275 7.50316 19.3667 7.50316V7.50547Z" fill="white"/>
<path d="M47.0962 12.4993C47.0962 13.1827 47.0447 13.8476 46.9419 14.4894C45.1277 14.5471 44.1318 12.5016 43.0096 11.3195C42.4438 10.6684 41.7448 10.0058 40.9055 9.63875C39.3204 8.75912 39.3017 5.41144 39.3649 3.72605V3.72144C39.3742 3.68681 39.3789 3.64987 39.3789 3.61523C44.2954 3.97309 47.0962 8.0434 47.0962 12.4993Z" fill="white"/>
<path d="M46.8834 14.8218C46.1002 18.9706 43.1498 21.9973 38.273 21.9973C36.5009 21.9973 34.9767 21.5356 33.7329 20.7506C34.1935 20.2473 34.8107 19.9033 35.5097 19.684C36.7394 19.2569 38.3899 19.2315 39.5168 18.3449C40.4659 17.6107 40.6039 16.4748 40.5221 15.362C40.9475 15.4498 41.3754 15.6321 41.7424 15.8307C42.3409 16.1655 42.9277 16.6041 43.2831 17.1952C43.3415 17.3106 43.5239 17.2298 43.4771 17.1097C42.9721 15.9346 41.7284 14.8541 40.4239 14.4893C40.4028 14.3462 40.3818 14.2076 40.3607 14.0714C40.1316 12.61 39.8371 11.1855 39.5916 9.76562C39.8207 10.0196 40.1012 10.2482 40.4168 10.3936C40.6296 10.4883 40.8494 10.5621 41.0551 10.6776C41.5718 10.95 42.0393 11.3587 42.4859 11.7996C43.7132 12.9632 44.9897 14.9718 46.8834 14.8218Z" fill="white"/>
<path d="M32.959 20.1902C31.2734 18.8026 30.2331 16.7478 29.9338 14.4853C30.4061 14.8431 30.9228 15.1548 31.5002 15.3741C33.5178 16.2007 35.8229 15.3372 37.4173 14.0328C38.135 13.354 38.4974 12.5044 38.6751 11.5947C38.9556 12.9084 39.2292 14.2175 39.3811 15.5358C39.8884 19.202 35.1917 17.4612 32.959 20.1902Z" fill="white"/>
<path d="M37.5859 10.729C37.5181 10.8629 37.4362 10.983 37.331 11.0845C37.0271 11.3708 36.4777 11.5278 36.1948 11.8949C36.0288 12.0865 35.9166 12.3036 35.8184 12.5206C35.7834 12.5945 35.8956 12.6591 35.9447 12.5922C36.2065 12.2205 36.5315 11.9526 36.978 11.8418C37.1323 11.8118 37.2983 11.7564 37.4596 11.6802C37.2913 12.4836 36.943 13.1647 36.293 13.6011C34.1609 15.2564 32.1527 15.1964 29.8803 13.9889C29.8569 13.7027 29.8452 13.4118 29.8452 13.1209C29.8452 8.10858 32.6062 4.03365 37.7963 3.625C37.4245 4.29454 37.4012 5.03564 37.3825 5.77444C37.3264 7.09735 37.6934 9.04593 37.5859 10.729Z" fill="white"/>
<path d="M57.5744 3.58984C62.9281 3.58984 66.0024 7.83331 66.0024 12.4993C66.0024 17.7863 62.9281 21.9975 57.177 21.9975C51.8233 21.9975 48.749 17.7863 48.749 13.1203C48.749 7.83332 51.8233 3.58984 57.5744 3.58984ZM57.177 7.50547C54.6311 7.50547 53.3429 9.59489 53.3429 12.4993C53.3429 15.9924 54.6311 18.0795 57.5744 18.0795C60.1531 18.0795 61.4085 15.9901 61.4085 13.118C61.4085 9.59258 60.0853 7.50316 57.177 7.50316V7.50547Z" fill="white"/>
<path d="M72.3427 0V3.98258H78.524V5.77879C78.524 6.69305 77.6964 7.8682 75.8799 7.8682H72.3427V14.7552C72.3427 17.0408 73.3667 17.9205 75.1528 17.9205C76.5742 17.9205 77.6636 17.7242 78.358 17.2994H78.524V18.8671C78.524 20.6633 77.2007 21.8038 74.6244 21.8038C70.1287 21.8038 67.9475 19.3888 67.9475 15.277V4.7006C67.9475 1.76157 70.5449 0 72.3427 0Z" fill="white"/>
<path d="M85.5632 21.9998C82.2902 21.9998 79.8448 20.3352 79.8448 18.539V16.5488H80.0108C80.9693 17.4308 83.2487 18.2134 85.3645 18.2134C87.4802 18.2134 88.6024 17.5924 88.6024 16.2879C88.6024 15.2767 87.9735 14.7872 84.9016 14.3624C81.1329 13.8407 79.3164 12.3723 79.3164 9.69416C79.3164 6.39728 82.3252 3.58984 86.8841 3.58984C90.9169 3.58984 92.5697 5.64693 92.5697 7.34386V9.00846H92.4037C91.478 8.0942 89.43 7.37618 87.3142 7.37618C84.6046 7.37618 83.7443 8.19117 83.7443 9.334C83.7443 10.2159 84.2727 10.5738 87.3142 11.0632C91.0151 11.6497 92.9999 13.2496 92.9999 16.0571C92.9999 19.7788 90.3558 21.9975 85.5632 21.9975V21.9998Z" fill="white"/>
</svg>
