<svg width="18" height="19" viewBox="0 0 18 19" fill="none" xmlns="http://www.w3.org/2000/svg">
<path d="M3.9375 16.3H3.9875V16.25V15.125C3.98727 14.1793 4.25459 13.2528 4.75859 12.4525C5.26258 11.6523 5.98269 11.0109 6.83571 10.6026L6.83574 10.6026C7.17472 10.4401 7.3625 10.1573 7.3625 9.89375V9.10625C7.3625 8.84267 7.17351 8.55987 6.8358 8.39744L6.83571 8.3974C5.98269 7.98906 5.26258 7.34772 4.75859 6.54748C4.25459 5.74724 3.98727 4.82074 3.9875 3.87501V3.875V2.75V2.7H3.9375H2.8125C2.67658 2.7 2.54622 2.646 2.45011 2.54989C2.354 2.45378 2.3 2.32342 2.3 2.1875C2.3 2.05158 2.354 1.92122 2.45011 1.82511C2.54622 1.729 2.67658 1.675 2.8125 1.675H15.1875C15.3234 1.675 15.4538 1.729 15.5499 1.82511C15.646 1.92122 15.7 2.05158 15.7 2.1875C15.7 2.32342 15.646 2.45378 15.5499 2.54989C15.4538 2.646 15.3234 2.7 15.1875 2.7H14.0625H14.0125V2.75V3.875C14.0127 4.82074 13.7454 5.74724 13.2414 6.54748C12.7374 7.34772 12.0173 7.98906 11.1643 8.3974L11.1643 8.39741C10.8253 8.55989 10.6375 8.84275 10.6375 9.10625V9.89375C10.6375 10.1573 10.8265 10.4401 11.1642 10.6026L11.1643 10.6026C12.0173 11.0109 12.7374 11.6523 13.2414 12.4525C13.7454 13.2528 14.0127 14.1793 14.0125 15.125V16.25V16.3H14.0625H15.1875C15.3234 16.3 15.4538 16.354 15.5499 16.4501C15.646 16.5462 15.7 16.6766 15.7 16.8125C15.7 16.9484 15.646 17.0788 15.5499 17.1749C15.4538 17.271 15.3234 17.325 15.1875 17.325H2.8125C2.67658 17.325 2.54622 17.271 2.45011 17.1749C2.354 17.0788 2.3 16.9484 2.3 16.8125C2.3 16.6766 2.354 16.5462 2.45011 16.4501C2.54622 16.354 2.67658 16.3 2.8125 16.3H3.9375ZM5.0625 2.7H5.0125V2.75V3.875C5.0125 4.48666 5.1492 5.06551 5.39649 5.58402L5.41008 5.6125H5.44162H12.5584H12.59L12.6035 5.58394C12.8496 5.06553 12.9875 4.48672 12.9875 3.875V2.75V2.7H12.9375H5.0625ZM8.4375 9.89375H8.3875C8.3875 10.6578 7.86618 11.2449 7.27848 11.5272C6.59983 11.852 6.02692 12.3622 5.62595 12.9988C5.22497 13.6355 5.01229 14.3726 5.0125 15.125L5.01255 15.2901L5.10408 15.1528L5.10409 15.1528L5.1041 15.1527L5.10416 15.1526L5.10458 15.152L5.10649 15.1492L5.11464 15.1377C5.12201 15.1274 5.13328 15.1121 5.14855 15.0925C5.17909 15.0531 5.22563 14.9963 5.28905 14.9273C5.4159 14.7893 5.61019 14.6026 5.8789 14.4095C6.41607 14.0233 7.25133 13.6108 8.44173 13.5098L8.4875 13.5059V13.46V9.89375H8.4375ZM9.5125 13.46V13.5059L9.55827 13.5098C10.7487 13.6108 11.5839 14.0233 12.1211 14.4095C12.3898 14.6026 12.5841 14.7893 12.7109 14.9273C12.7744 14.9963 12.8209 15.0531 12.8515 15.0925C12.8667 15.1121 12.878 15.1274 12.8854 15.1377L12.8935 15.1492L12.8954 15.152L12.8958 15.1526L12.8959 15.1527L12.8959 15.1528L12.8959 15.1528L12.9875 15.2901L12.9875 15.125C12.9877 14.3726 12.775 13.6355 12.3741 12.9988C11.9731 12.3622 11.4002 11.852 10.7215 11.5272C10.1338 11.2449 9.6125 10.6578 9.6125 9.89375H9.5625H9.5125V13.46Z" fill="#2B486C" stroke="#2B486C" stroke-width="0.1"/>
</svg>
