<svg width="16" height="17" viewBox="0 0 16 17" fill="none" xmlns="http://www.w3.org/2000/svg">
<g clip-path="url(#clip0_884_2353)">
<path d="M9.64602 1.4084L9.65335 1.4122L9.6615 1.41343L11.4939 1.69155L12.3243 3.3484L12.328 3.35578L12.3339 3.36158L13.6525 4.6634L13.3507 6.49186L13.3493 6.5L13.3507 6.50814L13.6525 8.3366L12.3339 9.63842L12.328 9.64422L12.3243 9.6516L11.4939 11.3085L9.6615 11.5866L9.65335 11.5878L9.64602 11.5916L8.00001 12.4437L6.35399 11.5916L6.34667 11.5878L6.33851 11.5866L4.50611 11.3085L3.67571 9.6516L3.67201 9.64422L3.66613 9.63842L2.34755 8.3366L2.64934 6.50814L2.65068 6.5L2.64934 6.49186L2.34755 4.6634L3.66613 3.36158L3.67201 3.35578L3.67571 3.3484L4.50611 1.69155L6.33851 1.41343L6.34667 1.4122L6.35399 1.4084L8.00001 0.556303L9.64602 1.4084ZM10.9097 2.5346L10.8981 2.51145L10.8725 2.50757L9.37167 2.2798L8.02299 1.5816L8 1.56969L7.97701 1.5816L6.62934 2.2798L5.12751 2.50757L5.10191 2.51145L5.09031 2.5346L4.41001 3.89221L3.3289 4.9584L3.31044 4.97661L3.31468 5.00219L3.56333 6.50002L3.31568 7.99784L3.31145 8.02339L3.32988 8.04158L4.41 9.10778L5.09031 10.4654L5.10191 10.4886L5.12751 10.4924L6.62934 10.7202L7.97701 11.4184L8.00001 11.4303L8.02301 11.4184L9.37067 10.7202L10.8725 10.4924L10.8981 10.4886L10.9097 10.4654L11.59 9.10778L12.6701 8.04158L12.6885 8.02341L12.6843 7.99788L12.4377 6.5L12.6843 5.00212L12.6885 4.97659L12.6701 4.95842L11.59 3.89222L10.9097 2.5346Z" fill="#2B486C" stroke="#2B486C" stroke-width="0.1"/>
<path d="M8.01213 15.4514L8 15.4484L7.98787 15.4514L4.05 16.4359V12.3521L6.00234 12.6481L7.97701 13.6703L8 13.6822L8.02299 13.6703L9.99766 12.6481L11.95 12.3521V16.4359L8.01213 15.4514Z" fill="#2B486C" stroke="#2B486C" stroke-width="0.1"/>
</g>
<defs>
<clipPath id="clip0_884_2353">
<rect width="16" height="16" fill="white" transform="translate(0 0.5)"/>
</clipPath>
</defs>
</svg>
