<svg width="23" height="19" viewBox="0 0 23 19" fill="none" xmlns="http://www.w3.org/2000/svg">
<path d="M15.5106 16.1958L13.1905 13.8742C12.2933 14.195 11.3234 14.2544 10.3937 14.0455C9.46406 13.8366 8.61282 13.368 7.93905 12.6943C7.26529 12.0205 6.7967 11.1693 6.58782 10.2396C6.37893 9.30993 6.43834 8.34005 6.75913 7.44283L3.79787 4.48158C1.34837 6.65939 0 9.13477 0 9.13477C0 9.13477 4.3125 17.041 11.5 17.041C12.8806 17.0362 14.2455 16.7486 15.5106 16.1958ZM7.48938 2.07377C8.75445 1.52094 10.1194 1.23327 11.5 1.22852C18.6875 1.22852 23 9.13477 23 9.13477C23 9.13477 21.6502 11.6087 19.2036 13.7894L16.2394 10.8253C16.5602 9.92804 16.6196 8.95816 16.4107 8.02849C16.2019 7.09882 15.7333 6.24758 15.0595 5.57382C14.3857 4.90005 13.5345 4.43147 12.6048 4.22258C11.6752 4.0137 10.7053 4.07311 9.80806 4.39389L7.48938 2.07377Z" fill="#068464"/>
<path d="M7.94215 8.625C7.86308 9.17745 7.91375 9.74072 8.09016 10.2702C8.26657 10.7996 8.56386 11.2807 8.95848 11.6754C9.3531 12.07 9.8342 12.3673 10.3637 12.5437C10.8931 12.7201 11.4564 12.7708 12.0088 12.6917L7.94215 8.625ZM15.0578 9.64275L10.9911 5.57463C11.5435 5.49555 12.1068 5.54623 12.6363 5.72263C13.1657 5.89904 13.6468 6.19633 14.0414 6.59095C14.4361 6.98557 14.7334 7.46667 14.9098 7.99614C15.0862 8.5256 15.1369 9.08887 15.0578 9.64131V9.64275ZM19.6161 18.2677L2.36609 1.01775L3.38384 0L20.6338 17.25L19.6161 18.2677Z" fill="#068464"/>
</svg>
