<svg width="18" height="19" viewBox="0 0 18 19" fill="none" xmlns="http://www.w3.org/2000/svg">
<g clip-path="url(#clip0_884_2333)">
<path d="M6.82474 5.03807C7.26027 4.96471 7.70235 4.93707 8.14377 4.95567C8.57921 4.47243 9.14339 4.12305 9.77041 3.94866C10.4051 3.77213 11.0772 3.78239 11.7062 3.9782C12.3352 4.17401 12.8944 4.54706 13.3167 5.05263C13.739 5.5582 14.0066 6.17484 14.0874 6.82863C14.0874 6.82864 14.0874 6.82865 14.0874 6.82866L6.82474 5.03807ZM6.82474 5.03807C7.2516 4.29428 7.88465 3.68889 8.64844 3.29569C9.4433 2.8865 10.3429 2.72608 11.2302 2.83532C12.1176 2.94455 12.9514 3.31837 13.6233 3.90813C14.2952 4.49788 14.774 5.27625 14.9973 6.14191L15.0075 6.18141L15.0483 6.17935C15.4222 6.16048 15.7961 6.21782 16.1472 6.3479C16.4983 6.47798 16.8193 6.67807 17.0907 6.93602C17.3621 7.19398 17.5782 7.50441 17.7259 7.84846C17.8736 8.19252 17.9499 8.56301 17.95 8.93742C17.9501 9.46596 17.7985 9.98342 17.5134 10.4284C17.2364 10.8606 16.8446 11.2069 16.3823 11.4286C16.2023 11.121 15.982 10.8389 15.7273 10.5897C16.1359 10.4561 16.4816 10.1753 16.696 9.80029C16.9249 9.40005 16.9854 8.92529 16.8642 8.48046C16.743 8.03563 16.45 7.65716 16.0498 7.42831C15.6496 7.19947 15.1748 7.13899 14.73 7.26016L6.82474 5.03807Z" fill="#2B486C" stroke="#2B486C" stroke-width="0.1"/>
<path d="M12.9375 15.125H3.37499H12.9375ZM12.9375 15.125C13.1768 15.1244 13.4132 15.073 13.6311 14.9741M12.9375 15.125L13.6311 14.9741M4.06124 10.2054L4.01281 10.1929C4.25439 9.25224 4.83098 8.43206 5.63437 7.88632C6.43776 7.34058 7.41271 7.10681 8.37622 7.2289C9.33974 7.35098 10.2256 7.82052 10.8675 8.54938C11.5093 9.27824 11.8632 10.2163 11.8625 11.1875M4.06124 10.2054L12.2689 11.7594C12.1918 11.7431 12.1195 11.7092 12.0576 11.6604C11.9957 11.6116 11.9459 11.5492 11.9121 11.4781C11.8783 11.4069 11.8613 11.3289 11.8625 11.2501V11.2494V11.1875M4.06124 10.2054L4.01281 10.1929C3.9834 10.3075 3.91528 10.4083 3.82001 10.4784C3.72473 10.5484 3.60816 10.5834 3.49006 10.5773L3.48971 10.5773C3.18422 10.5637 2.8791 10.6112 2.59218 10.717C2.30527 10.8228 2.04232 10.9847 1.81873 11.1933C1.59514 11.4019 1.41538 11.653 1.28999 11.9318C1.16459 12.2107 1.09606 12.5118 1.08841 12.8175C1.08077 13.1232 1.13416 13.4274 1.24545 13.7122C1.35675 13.997 1.52373 14.2568 1.73661 14.4763C1.9495 14.6958 2.20402 14.8706 2.48529 14.9906C2.76655 15.1106 3.06892 15.1733 3.37471 15.175H3.37499H12.9375H12.9376C13.184 15.1744 13.4274 15.1215 13.6517 15.0196C13.8761 14.9178 14.0762 14.7695 14.2388 14.5844C14.4014 14.3993 14.5228 14.1818 14.5949 13.9462C14.6671 13.7106 14.6883 13.4624 14.6572 13.218C14.6261 12.9737 14.5433 12.7387 14.4145 12.5287C14.2856 12.3187 14.1136 12.1386 13.9097 12.0001C13.7059 11.8617 13.475 11.7682 13.2323 11.7259C12.9896 11.6835 12.7407 11.6933 12.5021 11.7544L4.06124 10.2054ZM11.8625 11.1875L11.8125 11.1875H11.8625V11.1875ZM13.6311 14.9741C13.8489 14.8752 14.0433 14.7311 14.2012 14.5514M13.6311 14.9741L14.2012 14.5514M14.2012 14.5514C14.3592 14.3716 14.4771 14.1604 14.5471 13.9316M14.2012 14.5514L14.5471 13.9316M14.5471 13.9316C14.6172 13.7028 14.6378 13.4617 14.6076 13.2244M14.5471 13.9316L14.6076 13.2244M14.6076 13.2244C14.5773 12.987 14.497 12.7588 14.3718 12.5549M14.6076 13.2244L14.3718 12.5549M14.3718 12.5549C14.2467 12.3509 14.0796 12.1759 13.8817 12.0415M14.3718 12.5549L13.8817 12.0415M13.8817 12.0415C13.6837 11.9071 13.4594 11.8163 13.2237 11.7751M13.8817 12.0415L13.2237 11.7751M13.2237 11.7751C12.988 11.734 12.7463 11.7435 12.5145 11.8029L13.2237 11.7751ZM12.8574 10.6306L12.8624 10.675H12.9071H12.9375C13.6701 10.675 14.3728 10.966 14.8909 11.4841C15.4089 12.0022 15.7 12.7048 15.7 13.4375C15.7 14.1702 15.4089 14.8728 14.8909 15.3909C14.3728 15.909 13.6701 16.2 12.9375 16.2H3.37499H3.37495C2.51639 16.2006 1.69086 15.8692 1.07116 15.2749C0.45146 14.6807 0.0856355 13.8698 0.0502625 13.012C0.0148894 12.1542 0.31271 11.3159 0.881382 10.6727C1.45005 10.0294 2.24549 9.63112 3.10119 9.56108L3.13353 9.55844L3.14429 9.52782C3.48851 8.54786 4.12852 7.69896 4.97593 7.09837C5.82334 6.49778 6.83634 6.17513 7.875 6.175C9.10813 6.17476 10.2981 6.62909 11.2173 7.45108C12.1365 8.27308 12.7204 9.40506 12.8574 10.6306Z" fill="#2B486C" stroke="#2B486C" stroke-width="0.1"/>
</g>
<defs>
<clipPath id="clip0_884_2333">
<rect width="18" height="18" fill="white" transform="translate(0 0.5)"/>
</clipPath>
</defs>
</svg>
