<svg width="18" height="18" viewBox="0 0 18 18" fill="none" xmlns="http://www.w3.org/2000/svg">
<path d="M8.81529 4.09973L9 4.30224L9.18471 4.09973L9.90146 3.31389C11.448 1.61834 14.325 2.17873 15.3743 4.36456C15.8603 5.37695 15.9885 6.87203 15.0599 8.82611C14.1761 10.686 12.3379 12.9357 9 15.4039C5.66212 12.9357 3.82393 10.686 2.94009 8.82611C2.0115 6.87203 2.13973 5.37695 2.62573 4.36456C3.67503 2.17873 6.55203 1.61834 8.09854 3.31389L8.81529 4.09973ZM8.85597 17.2043L9 17.3059L9.14402 17.2043C16.8359 11.783 18.153 6.85681 16.7704 3.78093C15.4061 0.745874 11.417 -0.331654 9.00053 2.04091L9.04568 2.0869C9.04565 2.08686 9.04561 2.08683 9.04558 2.08679L9.00053 2.04091C9.00035 2.04108 9.00018 2.04125 9 2.04142C8.99982 2.04125 8.99964 2.04107 8.99946 2.0409C6.58296 -0.331652 2.59389 0.745879 1.22963 3.78093C-0.152988 6.85682 1.16409 11.783 8.85597 17.2043ZM9.07775 2.11955C9.07772 2.11953 9.07769 2.1195 9.07767 2.11948L9.17567 2.2193L9.07775 2.11955Z" fill="#068464" stroke="#068464" stroke-width="0.5"/>
</svg>
