<svg width="35" height="24" viewBox="0 0 35 24" fill="none" xmlns="http://www.w3.org/2000/svg">
<rect x="0.5" y="0.5" width="33.5" height="23" rx="2" fill="white" stroke="#D9D9D9"/>
<path fill-rule="evenodd" clip-rule="evenodd" d="M10.5378 16.2582H8.44772L6.88046 10.1924C6.80607 9.91334 6.64812 9.66667 6.41578 9.5504C5.83595 9.25823 5.19702 9.0257 4.5 8.90843V8.67489H7.86688C8.33155 8.67489 8.68006 9.0257 8.73815 9.43313L9.55133 13.8086L11.6403 8.67489H13.6723L10.5378 16.2582ZM14.834 16.2582H12.8601L14.4855 8.67489H16.4593L14.834 16.2582ZM19.013 10.7757C19.0711 10.3673 19.4196 10.1337 19.8262 10.1337C20.4652 10.0751 21.1611 10.1924 21.742 10.4835L22.0905 8.85081C21.5097 8.61727 20.8707 8.5 20.2909 8.5C18.3751 8.5 16.9811 9.55041 16.9811 11.0082C16.9811 12.1173 17.9685 12.6996 18.6655 13.0504C19.4196 13.4002 19.7101 13.6338 19.652 13.9835C19.652 14.5082 19.0711 14.7418 18.4913 14.7418C17.7943 14.7418 17.0973 14.5669 16.4593 14.2747L16.1108 15.9085C16.8079 16.1996 17.5619 16.3169 18.259 16.3169C20.4071 16.3745 21.742 15.3251 21.742 13.75C21.742 11.7665 19.013 11.6502 19.013 10.7757ZM28.65 16.2582L27.0828 8.67489H25.3993C25.0508 8.67489 24.7023 8.90843 24.5861 9.25823L21.6839 16.2582H23.7159L24.1214 15.1502H26.6181L26.8504 16.2582H28.65ZM25.6897 10.7171L26.2695 13.5751H24.6442L25.6897 10.7171Z" fill="#172B85"/>
</svg>
