<svg width="16" height="16" viewBox="0 0 16 16" fill="none" xmlns="http://www.w3.org/2000/svg">
<path d="M0 1.71429C0 0.767512 0.767512 0 1.71429 0L5.14286 0C6.08963 0 6.85714 0.767512 6.85714 1.71429V5.14286C6.85714 6.08963 6.08963 6.85714 5.14286 6.85714H1.71429C0.767512 6.85714 0 6.08963 0 5.14286L0 1.71429ZM1.71429 1.14286C1.39869 1.14286 1.14286 1.39869 1.14286 1.71429V5.14286C1.14286 5.45845 1.39869 5.71429 1.71429 5.71429H5.14286C5.45845 5.71429 5.71429 5.45845 5.71429 5.14286V1.71429C5.71429 1.39869 5.45845 1.14286 5.14286 1.14286H1.71429ZM9.14286 1.71429C9.14286 0.767512 9.91037 0 10.8571 0L14.2857 0C15.2325 0 16 0.767512 16 1.71429V5.14286C16 6.08963 15.2325 6.85714 14.2857 6.85714H10.8571C9.91037 6.85714 9.14286 6.08963 9.14286 5.14286V1.71429ZM10.8571 1.14286C10.5416 1.14286 10.2857 1.39869 10.2857 1.71429V5.14286C10.2857 5.45845 10.5416 5.71429 10.8571 5.71429H14.2857C14.6013 5.71429 14.8571 5.45845 14.8571 5.14286V1.71429C14.8571 1.39869 14.6013 1.14286 14.2857 1.14286H10.8571ZM0 10.8571C0 9.91037 0.767512 9.14286 1.71429 9.14286H5.14286C6.08963 9.14286 6.85714 9.91037 6.85714 10.8571V14.2857C6.85714 15.2325 6.08963 16 5.14286 16H1.71429C0.767512 16 0 15.2325 0 14.2857L0 10.8571ZM1.71429 10.2857C1.39869 10.2857 1.14286 10.5416 1.14286 10.8571V14.2857C1.14286 14.6013 1.39869 14.8571 1.71429 14.8571H5.14286C5.45845 14.8571 5.71429 14.6013 5.71429 14.2857V10.8571C5.71429 10.5416 5.45845 10.2857 5.14286 10.2857H1.71429ZM9.14286 10.8571C9.14286 9.91037 9.91037 9.14286 10.8571 9.14286H14.2857C15.2325 9.14286 16 9.91037 16 10.8571V14.2857C16 15.2325 15.2325 16 14.2857 16H10.8571C9.91037 16 9.14286 15.2325 9.14286 14.2857V10.8571ZM10.8571 10.2857C10.5416 10.2857 10.2857 10.5416 10.2857 10.8571V14.2857C10.2857 14.6013 10.5416 14.8571 10.8571 14.8571H14.2857C14.6013 14.8571 14.8571 14.6013 14.8571 14.2857V10.8571C14.8571 10.5416 14.6013 10.2857 14.2857 10.2857H10.8571Z" fill="#068464"/>
</svg>
