<svg width="19" height="19" viewBox="0 0 19 19" fill="none" xmlns="http://www.w3.org/2000/svg">
<path d="M12.0216 15.8333C12.0216 17.3181 10.8513 18.5 9.43414 18.5C8.01699 18.5 6.84668 17.3181 6.84668 15.8333C6.84668 15.5069 7.0009 14.9747 7.2887 14.3028C7.56798 13.6508 7.94406 12.9316 8.32562 12.257C8.70627 11.584 9.08761 10.9637 9.37416 10.5111C9.39466 10.4788 9.41466 10.4473 9.43414 10.4167C9.45362 10.4473 9.47363 10.4788 9.49412 10.5111C9.78067 10.9637 10.162 11.584 10.5427 12.257C10.9242 12.9316 11.3003 13.6508 11.5796 14.3028C11.8674 14.9747 12.0216 15.5069 12.0216 15.8333Z" stroke="#2B486C"/>
<path d="M5.38616 14.9736C4.15218 15.7043 2.56416 15.2746 1.8441 13.9955C1.12404 12.7163 1.55525 11.0909 2.78923 10.3602C3.05949 10.2002 3.58125 10.0713 4.29292 9.99093C4.98211 9.91311 5.77676 9.88756 6.53696 9.88916C7.29526 9.89076 8.00946 9.91932 8.53472 9.94757C8.58045 9.95003 8.62474 9.95249 8.66747 9.95492C8.64816 9.9941 8.62809 10.0347 8.6073 10.0765C8.36853 10.5572 8.03554 11.2059 7.65774 11.8802C7.279 12.5563 6.86009 13.2493 6.44979 13.8226C6.02611 14.4145 5.65641 14.8136 5.38616 14.9736Z" stroke="#2B486C"/>
<path d="M2.78819 8.64026C1.55421 7.90955 1.12301 6.28417 1.84307 5.00499C2.56313 3.72582 4.15114 3.29614 5.38512 4.02686C5.65538 4.18689 6.02507 4.58591 6.44876 5.17787C6.85906 5.75113 7.27796 6.44419 7.65671 7.12023C8.03451 7.79459 8.36749 8.44326 8.60627 8.92393C8.62706 8.96579 8.64712 9.00635 8.66644 9.04553C8.6237 9.04796 8.57942 9.05042 8.53368 9.05288C8.00843 9.08113 7.29422 9.10969 6.53592 9.11129C5.77572 9.1129 4.98107 9.08734 4.29188 9.00952C3.58021 8.92917 3.05845 8.8003 2.78819 8.64026Z" stroke="#2B486C"/>
<path d="M12.0216 3.16667C12.0216 1.68189 10.8513 0.5 9.43414 0.5C8.01699 0.5 6.84668 1.68189 6.84668 3.16667C6.84668 3.49309 7.0009 4.0253 7.2887 4.69719C7.56798 5.34917 7.94406 6.06839 8.32562 6.74302C8.70627 7.41604 9.08761 8.03634 9.37416 8.48887C9.39466 8.52124 9.41466 8.55274 9.43414 8.58333C9.45362 8.55274 9.47363 8.52124 9.49412 8.48887C9.78067 8.03634 10.162 7.41604 10.5427 6.74302C10.9242 6.06839 11.3003 5.34917 11.5796 4.69719C11.8674 4.0253 12.0216 3.49309 12.0216 3.16667Z" stroke="#2B486C"/>
<path d="M16.0814 8.64026C17.3154 7.90955 17.7466 6.28417 17.0266 5.00499C16.3065 3.72582 14.7185 3.29614 13.4845 4.02686C13.2142 4.18689 12.8446 4.58591 12.4209 5.17787C12.0106 5.75113 11.5917 6.44419 11.2129 7.12023C10.8351 7.79459 10.5021 8.44326 10.2634 8.92393C10.2426 8.96579 10.2225 9.00635 10.2032 9.04553C10.2459 9.04796 10.2902 9.05042 10.3359 9.05288C10.8612 9.08113 11.5754 9.1097 12.3337 9.11129C13.0939 9.1129 13.8886 9.08734 14.5777 9.00952C15.2894 8.92917 15.8112 8.8003 16.0814 8.64026Z" stroke="#2B486C"/>
<path d="M13.4835 14.9736C14.7175 15.7043 16.3055 15.2746 17.0255 13.9955C17.7456 12.7163 17.3144 11.0909 16.0804 10.3602C15.8101 10.2002 15.2884 10.0713 14.5767 9.99093C13.8875 9.91311 13.0929 9.88756 12.3327 9.88916C11.5744 9.89076 10.8602 9.91932 10.3349 9.94757C10.2892 9.95003 10.2449 9.95249 10.2022 9.95492C10.2215 9.9941 10.2415 10.0347 10.2623 10.0765C10.5011 10.5572 10.8341 11.2059 11.2119 11.8802C11.5906 12.5563 12.0095 13.2493 12.4198 13.8226C12.8435 14.4145 13.2132 14.8136 13.4835 14.9736Z" stroke="#2B486C"/>
</svg>
