<svg width="35" height="24" viewBox="0 0 35 24" fill="none" xmlns="http://www.w3.org/2000/svg">
<rect x="0.5" y="0.5" width="33.5" height="23" rx="2" fill="white" stroke="#D9D9D9"/>
<path fill-rule="evenodd" clip-rule="evenodd" d="M18.5369 8.14192L16.7843 8.52349V7.08202L18.5369 6.70752V8.14192ZM11.4149 7.52719L9.71127 7.89462L9.70429 13.5545C9.70429 14.6003 10.4793 15.3705 11.5127 15.3705C12.0852 15.3705 12.5041 15.2645 12.7346 15.1373V13.7029C12.5111 13.7948 11.4079 14.1198 11.4079 13.074V10.5656H12.7346V9.06052H11.4079L11.4149 7.52719ZM7.28856 10.4737C6.91851 10.4737 6.69508 10.5797 6.69508 10.8553C6.69508 11.1562 7.07961 11.2885 7.55665 11.4527C8.33435 11.7204 9.35794 12.0728 9.36227 13.3779C9.36227 14.6427 8.36382 15.3705 6.91153 15.3705C6.31106 15.3705 5.65474 15.2504 5.00539 14.9677V13.286C5.5919 13.6111 6.33201 13.8513 6.91153 13.8513C7.30253 13.8513 7.58182 13.7453 7.58182 13.4203C7.58182 13.087 7.16498 12.9346 6.66175 12.7507C5.89536 12.4706 4.92859 12.1173 4.92859 10.9401C4.92859 9.6894 5.87118 8.9404 7.28856 8.9404C7.86809 8.9404 8.44062 9.03226 9.02015 9.26544V10.926C8.4895 10.6363 7.81921 10.4737 7.28856 10.4737ZM27.5437 8.94041C29.1985 8.94041 30.0643 10.3677 30.0643 12.1766C30.0643 12.2743 30.0597 12.4377 30.0557 12.5762V12.5762L30.0557 12.5764L30.0557 12.5779C30.0528 12.6791 30.0503 12.7668 30.0503 12.8055H26.6361C26.7129 13.6393 27.3133 13.8796 27.9906 13.8796C28.6818 13.8796 29.2264 13.7312 29.7012 13.4909V14.9041C29.2264 15.1726 28.598 15.3634 27.7672 15.3634C26.0635 15.3634 24.8766 14.2894 24.8766 12.1625C24.8766 10.3677 25.882 8.94041 27.5437 8.94041ZM27.5367 10.3748C27.0968 10.3748 26.6151 10.7069 26.6151 11.5054H28.4165C28.4165 10.7069 27.9626 10.3748 27.5367 10.3748ZM14.9062 9.5834L14.7944 9.06052H13.2863V15.2433H15.0318V11.0531C15.4438 10.5091 16.142 10.608 16.3584 10.6857V9.06052C16.135 8.97573 15.3181 8.82027 14.9062 9.5834ZM16.7842 9.0605H18.5367V15.2433H16.7842V9.0605ZM22.1814 8.94041C21.4971 8.94041 21.0572 9.26544 20.8129 9.49156L20.7221 9.05346H19.186V17.2925L20.9316 16.918L20.9385 14.9183C21.1899 15.102 21.56 15.3634 22.1744 15.3634C23.4242 15.3634 24.5623 14.3459 24.5623 12.106C24.5553 10.0568 23.4032 8.94041 22.1814 8.94041ZM21.7624 13.8089C21.3505 13.8089 21.1061 13.6605 20.9385 13.4768L20.9316 10.8553C21.1131 10.6504 21.3644 10.509 21.7624 10.509C22.3978 10.509 22.8377 11.2298 22.8377 12.1554C22.8377 13.1023 22.4048 13.8089 21.7624 13.8089Z" fill="#6461FC"/>
</svg>
