<svg width="18" height="14" viewBox="0 0 18 14" fill="none" xmlns="http://www.w3.org/2000/svg">
<path d="M0 1.6875C0 0.755519 0.75552 0 1.6875 0H11.8125C12.7445 0 13.5 0.75552 13.5 1.6875V3.375H14.6468C15.1594 3.375 15.6443 3.60803 15.9645 4.00833L17.6302 6.09046C17.8696 6.38967 18 6.76145 18 7.14463V9.5625C18 10.4945 17.2445 11.25 16.3125 11.25H15.75C15.75 12.4926 14.7426 13.5 13.5 13.5C12.2574 13.5 11.25 12.4926 11.25 11.25H5.625C5.625 12.4926 4.61764 13.5 3.375 13.5C2.13236 13.5 1.125 12.4926 1.125 11.25C1.125 11.2181 1.12567 11.1863 1.12698 11.1547C0.470525 10.9236 0 10.298 0 9.5625V1.6875ZM1.4557 10.0752C1.85133 9.43022 2.56292 9 3.375 9C4.20782 9 4.93495 9.45247 5.32399 10.125H11.551C11.7486 9.78342 12.0334 9.4986 12.375 9.30101V1.6875C12.375 1.37684 12.1232 1.125 11.8125 1.125H1.6875C1.37684 1.125 1.125 1.37684 1.125 1.6875V9.5625C1.125 9.79052 1.26067 9.98685 1.4557 10.0752ZM13.5 9C14.3328 9 15.06 9.45247 15.449 10.125H16.3125C16.6232 10.125 16.875 9.87316 16.875 9.5625V7.14463C16.875 7.0169 16.8315 6.89298 16.7517 6.79324L15.086 4.71111C14.9793 4.57768 14.8177 4.5 14.6468 4.5H13.5V9ZM3.375 10.125C2.75368 10.125 2.25 10.6287 2.25 11.25C2.25 11.8713 2.75368 12.375 3.375 12.375C3.99632 12.375 4.5 11.8713 4.5 11.25C4.5 10.6287 3.99632 10.125 3.375 10.125ZM13.5 10.125C12.8787 10.125 12.375 10.6287 12.375 11.25C12.375 11.8713 12.8787 12.375 13.5 12.375C14.1213 12.375 14.625 11.8713 14.625 11.25C14.625 10.6287 14.1213 10.125 13.5 10.125Z" fill="#2B486C"/>
</svg>
