<svg width="24" height="24" viewBox="0 0 24 24" fill="none" xmlns="http://www.w3.org/2000/svg">
<path d="M12 0C5.37258 0 0 5.37258 0 12C0 18.6274 5.37258 24 12 24C18.6274 24 24 18.6274 24 12C24 5.37258 18.6274 0 12 0ZM7.32329 2.59644C7.34005 2.75375 7.40825 2.90825 7.53335 3.03335C7.88591 3.38591 7.78946 3.98027 7.3435 4.20325L6.90707 4.42146C6.80304 4.47348 6.70807 4.54193 6.62582 4.62418L5.90552 5.34448C5.50378 5.74622 4.90952 5.88651 4.37052 5.70684L4.34178 5.69726C4.11082 5.62027 3.87374 5.60256 3.64749 5.63626C4.6196 4.3623 5.87654 3.31735 7.32329 2.59644ZM2.8233 17.1067L4.1138 16.784C4.78155 16.6171 5.25 16.0171 5.25 15.3288V15.0528C5.25 14.5512 5.50065 14.0829 5.91795 13.8047L5.97759 13.7649C6.76519 13.2399 6.87553 12.1255 6.2062 11.4562L4.68198 9.93198C4.56546 9.81546 4.5 9.65742 4.5 9.49264C4.5 8.98064 5.08452 8.68839 5.49411 8.99558L7.12918 10.2219C7.35644 10.3923 7.6605 10.4197 7.91459 10.2927C8.41327 10.0434 9 10.406 9 10.9635V11.6453C9 11.8766 9.06845 12.1027 9.19673 12.2951L10.3886 14.0829C10.4625 14.1938 10.5214 14.3141 10.5635 14.4406L11.6581 17.7243C11.8623 18.3369 12.4355 18.75 13.0811 18.75H13.1689C13.8145 18.75 14.3877 18.3369 14.5919 17.7243L15.6865 14.4406C15.7286 14.3141 15.7875 14.1938 15.8614 14.0829L17.0478 12.3032C17.1741 12.1138 17.3868 12 17.6144 12C17.8536 12 18.074 12.1253 18.2025 12.327C19.0382 13.6393 20.6474 15.75 21.75 15.75C21.7708 15.75 21.7913 15.7493 21.8114 15.7479C20.3023 19.6961 16.4786 22.5 12 22.5C8.05465 22.5 4.61752 20.324 2.8233 17.1067Z" fill="#2B486C"/>
</svg>
