<svg width="31" height="28" viewBox="0 0 31 28" fill="none" xmlns="http://www.w3.org/2000/svg">
<path d="M27.9 28C29.6121 28 31 26.6071 31 24.8889V17.292C31 15.5738 29.6121 14.1809 27.9 14.1809H23.5984C23.5984 13.0876 23.6625 11.9943 23.7907 10.9009C23.9829 9.74333 24.3034 8.71433 24.7519 7.81396C25.2005 6.91358 25.7773 6.20615 26.4822 5.69165C27.1871 5.11284 28.0842 4.82343 29.1736 4.82343V0C27.3793 0 25.8093 0.385874 24.4636 1.15762C23.1178 1.92937 21.9964 2.95837 21.0992 4.24462C20.2661 5.53086 19.6253 7.04221 19.1767 8.77864C18.7922 10.4508 18.6 12.2515 18.6 14.1809V24.8889C18.6 26.6071 19.9879 28 21.7 28H27.9Z" fill="#2B486C"/>
<path d="M9.3 28C11.0121 28 12.4 26.6071 12.4 24.8889V17.292C12.4 15.5738 11.0121 14.1809 9.3 14.1809H4.99845C4.99845 13.0876 5.06253 11.9943 5.19069 10.9009C5.38294 9.74333 5.70336 8.71433 6.15194 7.81396C6.60052 6.91358 7.17726 6.20615 7.88217 5.69165C8.58708 5.11284 9.48424 4.82343 10.5736 4.82343V0C8.77933 0 7.2093 0.385874 5.86356 1.15762C4.51783 1.92937 3.39638 2.95837 2.49922 4.24462C1.66615 5.53086 1.02532 7.04221 0.576744 8.77864C0.192248 10.4508 0 12.2515 0 14.1809V24.8889C0 26.6071 1.38792 28 3.1 28H9.3Z" fill="#2B486C"/>
</svg>
