<svg width="19" height="18" viewBox="0 0 19 18" fill="none" xmlns="http://www.w3.org/2000/svg">
<path d="M9.80952 0C10.4259 0 10.9256 0.50368 10.9256 1.125V7.875H17.622C18.2384 7.875 18.7381 8.37868 18.7381 9C18.7381 9.62132 18.2384 10.125 17.622 10.125H10.9256V16.875C10.9256 17.4963 10.4259 18 9.80952 18C9.19313 18 8.69345 17.4963 8.69345 16.875V10.125H1.99702C1.38063 10.125 0.880951 9.62132 0.880951 9C0.880951 8.37868 1.38063 7.875 1.99702 7.875H8.69345V1.125C8.69345 0.50368 9.19313 0 9.80952 0Z" fill="#068464"/>
</svg>
