<svg width="24" height="16" viewBox="0 0 24 16" fill="none" xmlns="http://www.w3.org/2000/svg">
<path d="M5.14286 1.71429V5.14286H1.71429V1.71429H5.14286ZM6.85714 13.7143V10.2857C6.85714 9.33894 6.08963 8.57143 5.14286 8.57143H1.71429C0.767512 8.57143 0 9.33894 0 10.2857V13.7143C0 14.6611 0.767512 15.4286 1.71429 15.4286H5.14286C6.08963 15.4286 6.85714 14.6611 6.85714 13.7143ZM6.85714 5.14286V1.71429C6.85714 0.767512 6.08963 0 5.14286 0H1.71429C0.767512 0 0 0.767512 0 1.71429V5.14286C0 6.08963 0.767512 6.85714 1.71429 6.85714H5.14286C6.08963 6.85714 6.85714 6.08963 6.85714 5.14286ZM15.4286 13.7143V10.2857C15.4286 9.33894 14.6611 8.57143 13.7143 8.57143H10.2857C9.33894 8.57143 8.57143 9.33894 8.57143 10.2857V13.7143C8.57143 14.6611 9.33894 15.4286 10.2857 15.4286H13.7143C14.6611 15.4286 15.4286 14.6611 15.4286 13.7143ZM15.4286 5.14286V1.71429C15.4286 0.767512 14.6611 0 13.7143 0H10.2857C9.33894 0 8.57143 0.767512 8.57143 1.71429V5.14286C8.57143 6.08963 9.33894 6.85714 10.2857 6.85714H13.7143C14.6611 6.85714 15.4286 6.08963 15.4286 5.14286ZM13.7143 1.71429V5.14286H10.2857V1.71429H13.7143ZM22.2857 1.71429H18.8571V5.14286H22.2857V1.71429ZM5.14286 10.2857V13.7143H1.71429V10.2857H5.14286ZM13.7143 10.2857V13.7143H10.2857V10.2857H13.7143ZM22.2857 10.2857V13.7143H18.8571V10.2857H22.2857ZM17.1429 1.71429C17.1429 0.767512 17.9104 0 18.8571 0H22.2857C23.2325 0 24 0.767512 24 1.71429V5.14286C24 6.08963 23.2325 6.85714 22.2857 6.85714H18.8571C17.9104 6.85714 17.1429 6.08963 17.1429 5.14286V1.71429ZM18.8571 8.57143C17.9104 8.57143 17.1429 9.33894 17.1429 10.2857V13.7143C17.1429 14.6611 17.9104 15.4286 18.8571 15.4286H22.2857C23.2325 15.4286 24 14.6611 24 13.7143V10.2857C24 9.33894 23.2325 8.57143 22.2857 8.57143H18.8571Z" fill="#2B486C"/>
</svg>
