<svg width="24" height="16" viewBox="0 0 24 16" fill="none" xmlns="http://www.w3.org/2000/svg">
<path d="M0 8C0 8 4.36364 0 11.6364 0C18.9091 0 23.2727 8 23.2727 8C23.2727 8 18.9091 16 11.6364 16C4.36364 16 0 8 0 8ZM11.6364 13.0909C12.9866 13.0909 14.2814 12.5545 15.2362 11.5998C16.1909 10.6451 16.7273 9.35019 16.7273 8C16.7273 6.64981 16.1909 5.35491 15.2362 4.40018C14.2814 3.44545 12.9866 2.90909 11.6364 2.90909C10.2862 2.90909 8.99128 3.44545 8.03655 4.40018C7.08182 5.35491 6.54545 6.64981 6.54545 8C6.54545 9.35019 7.08182 10.6451 8.03655 11.5998C8.99128 12.5545 10.2862 13.0909 11.6364 13.0909Z" fill="#068464"/>
</svg>
