<svg width="18" height="18" viewBox="0 0 18 18" fill="none" xmlns="http://www.w3.org/2000/svg">
<path d="M0 1.28941C0 0.577477 0.591764 0 1.32178 0H16.6782C17.4082 0 18 0.577479 18 1.28941V16.7106C18 17.4228 17.4082 18 16.6782 18L1.32178 18C0.591764 18 0 17.4228 0 16.7106V1.28941ZM5.5613 15.0679V6.93986H2.8597V15.0679H5.5613ZM4.21049 5.83011C5.15259 5.83011 5.73897 5.20597 5.73897 4.42598C5.72142 3.62843 5.15259 3.02161 4.22836 3.02161C3.30423 3.02161 2.7 3.62843 2.7 4.42598C2.7 5.20597 3.28626 5.83011 4.19288 5.83011H4.21049ZM9.73282 15.0679V10.5288C9.73282 10.2859 9.75038 10.0432 9.82172 9.86959C10.017 9.38422 10.4615 8.88154 11.2079 8.88154C12.1854 8.88154 12.5765 9.6269 12.5765 10.7196V15.0679H15.2779V10.4074C15.2779 7.91082 13.945 6.74913 12.1676 6.74913C10.7345 6.74913 10.0919 7.53679 9.7329 8.09063V8.11863H9.71486C9.72079 8.10936 9.7268 8.10003 9.7329 8.09063V6.93986H7.03132C7.06678 7.70253 7.03132 15.0679 7.03132 15.0679H9.73282Z" fill="#068464"/>
</svg>
