<svg width="20" height="24" viewBox="0 0 20 24" fill="none" xmlns="http://www.w3.org/2000/svg">
<path d="M10.4788 0.0703172C9.01975 -0.294436 7.66521 0.809291 7.56664 2.23787C7.45586 3.84331 7.21643 5.31526 6.9121 6.19333C6.72207 6.74162 6.1814 7.73825 5.32623 8.6939C4.47453 9.64568 3.3676 10.4934 2.07158 10.8469C1.04652 11.1265 0 12.0148 0 13.3128V19.421C0 20.7102 1.04169 21.6558 2.21049 21.7797C3.84325 21.9529 4.59802 22.4136 5.36768 22.8835L5.44035 22.9278C5.85679 23.1816 6.3231 23.461 6.92243 23.6674C7.52792 23.8759 8.23693 24 9.16002 24H14.5034C15.9339 24 16.9444 23.2704 17.4561 22.375C17.7065 21.9367 17.8429 21.4495 17.8429 20.9824C17.8429 20.7498 17.8082 20.5059 17.7256 20.2733C18.0332 19.8729 18.3071 19.3919 18.4717 18.898C18.6392 18.3954 18.7336 17.7355 18.4767 17.145C18.5822 16.9455 18.6612 16.7345 18.72 16.5286C18.8379 16.1162 18.8925 15.6627 18.8925 15.2217C18.8925 14.7806 18.8379 14.3271 18.72 13.9147C18.6674 13.7303 18.5985 13.5417 18.5088 13.3611C19.1113 12.4887 19.1477 11.5277 18.8659 10.7149C18.5527 9.81101 17.826 9.03622 17.0347 8.77248C15.7415 8.34138 14.2815 8.35131 13.1938 8.45019C12.9523 8.47215 12.7252 8.49889 12.5178 8.52728C13.236 5.47725 12.7584 2.88849 12.4219 1.64272C12.2122 0.866412 11.5838 0.346587 10.8779 0.170093L10.4788 0.0703172ZM14.5034 22.4733H9.16002C8.38035 22.4733 7.84241 22.3695 7.41949 22.2239C6.99042 22.0761 6.64689 21.8752 6.23481 21.6241L6.17388 21.587C5.32679 21.0702 4.3443 20.4708 2.37148 20.2616C1.86338 20.2077 1.52667 19.8181 1.52667 19.421V13.3128C1.52667 12.9245 1.87154 12.4839 2.47335 12.3198C4.14561 11.8636 5.4912 10.7989 6.4639 9.71193C7.43313 8.62881 8.08876 7.46026 8.35459 6.69325C8.72497 5.62459 8.97575 3.99418 9.08969 2.34294C9.12785 1.78982 9.64039 1.43436 10.1085 1.55138L10.5076 1.65116C10.7528 1.71246 10.9021 1.87061 10.948 2.04082C11.2845 3.28623 11.7848 6.07855 10.7259 9.25523C10.6378 9.51954 10.7006 9.81085 10.8899 10.0153C11.0792 10.2196 11.365 10.3046 11.6352 10.2372L11.6391 10.2362L11.66 10.2312C11.6795 10.2266 11.7098 10.2196 11.7499 10.2108C11.8303 10.1931 11.9501 10.168 12.1019 10.1398C12.4061 10.0835 12.8355 10.0157 13.332 9.97057C14.3435 9.87862 15.5553 9.88855 16.552 10.2208C16.8199 10.3101 17.2382 10.6803 17.4235 11.2148C17.5861 11.6841 17.5545 12.2359 17.0169 12.7735L16.4772 13.3133L17.0169 13.8531C17.0819 13.918 17.1762 14.0683 17.2521 14.334C17.3251 14.5895 17.3659 14.8993 17.3659 15.2216C17.3659 15.5439 17.3251 15.8537 17.2521 16.1092C17.1762 16.375 17.0819 16.5252 17.0169 16.5902L16.4772 17.13L17.0169 17.6697C17.0887 17.7415 17.1821 17.9391 17.0234 18.4152C16.8742 18.8626 16.5615 19.3357 16.2536 19.6435L15.7138 20.1833L16.2536 20.7231C16.2616 20.7311 16.3163 20.7988 16.3163 20.9824C16.3163 21.1594 16.2618 21.3878 16.1306 21.6175C15.879 22.0579 15.3628 22.4733 14.5034 22.4733Z" fill="#2B486C"/>
</svg>
