<svg width="16" height="16" viewBox="0 0 16 16" fill="none" xmlns="http://www.w3.org/2000/svg">
<path d="M8.00001 7.44999C9.90539 7.44999 11.45 5.90537 11.45 3.99999C11.45 2.09461 9.90539 0.549988 8.00001 0.549988C6.09462 0.549988 4.55001 2.09461 4.55001 3.99999C4.55001 5.90537 6.09462 7.44999 8.00001 7.44999ZM9.88334 3.99999C9.88334 5.04012 9.04014 5.88332 8.00001 5.88332C6.95987 5.88332 6.11667 5.04012 6.11667 3.99999C6.11667 2.95985 6.95987 2.11665 8.00001 2.11665C9.04014 2.11665 9.88334 2.95985 9.88334 3.99999ZM2.66667 13.6V13.85H13.3333V13.6C13.3333 13.85 13.3335 13.85 13.3336 13.85L13.3339 13.85L13.3345 13.85L13.3361 13.85L13.3404 13.8499L13.3536 13.8496C13.3644 13.8492 13.379 13.8486 13.397 13.8473C13.4328 13.8447 13.4823 13.8397 13.5411 13.8299C13.6575 13.8105 13.8165 13.7713 13.9785 13.6903C14.1415 13.6088 14.3121 13.4826 14.4414 13.2887C14.5717 13.0932 14.65 12.8437 14.65 12.5333C14.65 11.9358 14.3585 10.8049 13.3768 9.82321C12.3878 8.83419 10.7194 8.01665 8.00001 8.01665C5.28062 8.01665 3.61225 8.83419 2.62323 9.82321C1.64154 10.8049 1.35001 11.9358 1.35001 12.5333C1.35001 12.8437 1.42833 13.0932 1.55866 13.2887C1.68795 13.4826 1.85855 13.6088 2.02154 13.6903C2.18355 13.7713 2.34253 13.8105 2.45891 13.8299C2.51769 13.8397 2.56721 13.8447 2.60303 13.8473C2.62098 13.8486 2.6356 13.8492 2.64636 13.8496L2.65958 13.8499L2.66392 13.85L2.66549 13.85L2.66613 13.85L2.66642 13.85C2.66655 13.85 2.66667 13.85 2.66667 13.6ZM12.269 10.931C12.7691 11.4312 12.9745 11.9585 13.0478 12.2796H2.95215C3.02549 11.9585 3.23086 11.4312 3.73102 10.931C4.37116 10.2909 5.61115 9.58332 8 9.58332C10.3888 9.58332 11.6288 10.2909 12.269 10.931Z" fill="#068464" stroke="#068464" stroke-width="0.5"/>
</svg>
