<svg width="15" height="10" viewBox="0 0 15 10" fill="none" xmlns="http://www.w3.org/2000/svg">
<path d="M5.33333 8.42857C5.33333 8.11298 5.57585 7.85714 5.875 7.85714H9.125C9.42416 7.85714 9.66667 8.11298 9.66667 8.42857C9.66667 8.74416 9.42416 9 9.125 9H5.875C5.57585 9 5.33333 8.74416 5.33333 8.42857Z" fill="#068464"/>
<path d="M3.16667 5C3.16667 4.68441 3.40918 4.42857 3.70833 4.42857H11.2917C11.5908 4.42857 11.8333 4.68441 11.8333 5C11.8333 5.31559 11.5908 5.57143 11.2917 5.57143H3.70833C3.40918 5.57143 3.16667 5.31559 3.16667 5Z" fill="#068464"/>
<path d="M1 1.57143C1 1.25584 1.24251 1 1.54167 1H13.4583C13.7575 1 14 1.25584 14 1.57143C14 1.88702 13.7575 2.14286 13.4583 2.14286H1.54167C1.24251 2.14286 1 1.88702 1 1.57143Z" fill="#068464"/>
<path d="M5.33333 8.42857C5.33333 8.11298 5.57585 7.85714 5.875 7.85714H9.125C9.42416 7.85714 9.66667 8.11298 9.66667 8.42857C9.66667 8.74416 9.42416 9 9.125 9H5.875C5.57585 9 5.33333 8.74416 5.33333 8.42857Z" stroke="#068464" stroke-width="0.5" stroke-linecap="round" stroke-linejoin="round"/>
<path d="M3.16667 5C3.16667 4.68441 3.40918 4.42857 3.70833 4.42857H11.2917C11.5908 4.42857 11.8333 4.68441 11.8333 5C11.8333 5.31559 11.5908 5.57143 11.2917 5.57143H3.70833C3.40918 5.57143 3.16667 5.31559 3.16667 5Z" stroke="#068464" stroke-width="0.5" stroke-linecap="round" stroke-linejoin="round"/>
<path d="M1 1.57143C1 1.25584 1.24251 1 1.54167 1H13.4583C13.7575 1 14 1.25584 14 1.57143C14 1.88702 13.7575 2.14286 13.4583 2.14286H1.54167C1.24251 2.14286 1 1.88702 1 1.57143Z" stroke="#068464" stroke-width="0.5" stroke-linecap="round" stroke-linejoin="round"/>
</svg>
