<svg width="35" height="24" viewBox="0 0 35 24" fill="none" xmlns="http://www.w3.org/2000/svg">
<rect x="1" y="0.5" width="33.5" height="23" rx="2" fill="white" stroke="#D9D9D9"/>
<path fill-rule="evenodd" clip-rule="evenodd" d="M18.0715 17.5462C16.7551 18.6506 15.0475 19.3174 13.1816 19.3174C9.0181 19.3174 5.64294 15.9979 5.64294 11.9031C5.64294 7.80826 9.0181 4.48877 13.1816 4.48877C15.0475 4.48877 16.7551 5.15551 18.0715 6.25997C19.3879 5.15552 21.0955 4.48879 22.9614 4.48879C27.1249 4.48879 30.5 7.80828 30.5 11.9031C30.5 15.9979 27.1249 19.3174 22.9614 19.3174C21.0955 19.3174 19.3879 18.6506 18.0715 17.5462Z" fill="#ED0006"/>
<path fill-rule="evenodd" clip-rule="evenodd" d="M18.0715 17.5462C19.6924 16.1863 20.7202 14.1627 20.7202 11.9031C20.7202 9.64341 19.6924 7.61986 18.0715 6.25994C19.3879 5.1555 21.0955 4.48877 22.9614 4.48877C27.1248 4.48877 30.5 7.80826 30.5 11.9031C30.5 15.9979 27.1248 19.3174 22.9614 19.3174C21.0955 19.3174 19.3879 18.6506 18.0715 17.5462Z" fill="#F9A000"/>
<path fill-rule="evenodd" clip-rule="evenodd" d="M18.0715 17.5464C19.6924 16.1865 20.7202 14.163 20.7202 11.9033C20.7202 9.64371 19.6924 7.62017 18.0715 6.26025C16.4506 7.62017 15.4229 9.64371 15.4229 11.9033C15.4229 14.163 16.4506 16.1865 18.0715 17.5464Z" fill="#FF5E00"/>
</svg>
