<svg width="32" height="36" viewBox="0 0 32 36" fill="none" xmlns="http://www.w3.org/2000/svg">
<path d="M32 17.3987C32 18.737 31.9046 20.0392 31.7138 21.2962C28.3486 21.4092 26.5011 17.4032 24.4196 15.0882C23.3701 13.8131 22.0734 12.5155 20.5166 11.7965C17.5764 10.0739 17.5417 3.51771 17.6588 0.217031V0.207989C17.6761 0.140166 17.6848 0.0678222 17.6848 0C26.8047 0.70083 32 8.6722 32 17.3987Z" fill="#068464"/>
<path d="M31.6054 21.9472C30.1526 30.0723 24.6798 36 15.6336 36C12.3464 36 9.51892 35.0957 7.21183 33.5584C8.06615 32.5727 9.21102 31.899 10.5077 31.4695C12.7887 30.633 15.8504 30.5832 17.9407 28.847C19.7013 27.4092 19.9572 25.1846 19.8054 23.0052C20.5947 23.1771 21.3883 23.5343 22.0691 23.9231C23.1793 24.5787 24.2678 25.4378 24.927 26.5953C25.0354 26.8214 25.3736 26.6631 25.2869 26.428C24.3502 24.1266 22.0431 22.0105 19.6233 21.2961C19.5842 21.0158 19.5452 20.7445 19.5062 20.4777C19.0812 17.6156 18.5348 14.8259 18.0794 12.0452C18.5044 12.5425 19.0248 12.9902 19.6103 13.275C20.0049 13.4604 20.4125 13.6051 20.7942 13.8312C21.7526 14.3647 22.6199 15.165 23.4482 16.0286C25.7249 18.3074 28.0927 22.2411 31.6054 21.9472Z" fill="#068464"/>
<path d="M5.77636 32.4597C2.64965 29.7423 0.719849 25.7182 0.164761 21.2871C1.04076 21.9879 1.99916 22.5983 3.07031 23.0279C6.81282 24.6466 11.0887 22.9555 14.0463 20.4009C15.3777 19.0716 16.0498 17.4077 16.3794 15.6262C16.8998 18.1989 17.4072 20.7626 17.6891 23.3444C18.6301 30.5245 9.91785 27.1153 5.77636 32.4597Z" fill="#068464"/>
<path d="M14.3586 13.9307C14.2328 14.1929 14.081 14.428 13.8859 14.627C13.3221 15.1876 12.303 15.4951 11.7783 16.214C11.4704 16.5893 11.2622 17.0143 11.0801 17.4393C11.015 17.584 11.2232 17.7106 11.3143 17.5795C11.8 16.8515 12.4028 16.3271 13.2311 16.11C13.5173 16.0512 13.8252 15.9427 14.1244 15.7935C13.8122 17.367 13.166 18.7008 11.9604 19.5554C8.00542 22.7973 4.28025 22.6797 0.0650468 20.315C0.0216805 19.7543 0 19.1846 0 18.6149C0 8.79879 5.12156 0.818369 14.7489 0.0180664C14.0594 1.3293 14.016 2.78069 13.9813 4.22757C13.8772 6.81838 14.5581 10.6345 14.3586 13.9307Z" fill="#068464"/>
</svg>
