<svg width="18" height="19" viewBox="0 0 18 19" fill="none" xmlns="http://www.w3.org/2000/svg">
<g clip-path="url(#clip0_884_2283)">
<path d="M9.52939 18.4998L9.495 18.5361L9.52939 18.5687L9.56379 18.5361L9.52939 18.4998ZM9.52939 18.4998C9.56379 18.5361 9.56382 18.536 9.56387 18.536L9.5641 18.5358L9.565 18.5349L9.5685 18.5316L9.58223 18.5184L9.63558 18.4669C9.68227 18.4215 9.75068 18.3545 9.83771 18.2675C10.0118 18.0936 10.2603 17.8402 10.5585 17.5219C11.1549 16.8853 11.9502 15.9887 12.7456 14.9489C13.5409 13.9094 14.337 12.7258 14.9345 11.5151C15.5318 10.305 15.9323 9.0643 15.9323 7.91154C15.9323 6.21337 15.2577 4.58476 14.057 3.38397C12.8562 2.18319 11.2276 1.50859 9.52939 1.50859C7.83123 1.50859 6.20261 2.18319 5.00183 3.38397C3.80105 4.58476 3.12645 6.21337 3.12645 7.91154C3.12645 9.0643 3.52702 10.305 4.12426 11.5151C4.72178 12.7258 5.51793 13.9094 6.31321 14.9489C7.10861 15.9887 7.90388 16.8853 8.50026 17.5219C8.79847 17.8402 9.04702 18.0936 9.22108 18.2675C9.30811 18.3545 9.37652 18.4215 9.4232 18.4669L9.47656 18.5184L9.49029 18.5316L9.49379 18.5349L9.49468 18.5358L9.49491 18.536C9.49494 18.536 9.49495 18.536 9.49712 18.5338C9.50041 18.5303 9.50865 18.5217 9.52939 18.4998ZM5.16317 11.0024L5.16316 11.0023C4.60366 9.8696 4.28528 8.81343 4.28528 7.91154C4.28528 6.52071 4.83778 5.18685 5.82124 4.20338C6.80471 3.21992 8.13857 2.66742 9.52939 2.66742C10.9202 2.66742 12.2541 3.21992 13.2375 4.20338C14.221 5.18685 14.7735 6.52071 14.7735 7.91154C14.7735 8.81341 14.4541 9.86957 13.8956 11.0024C13.3427 12.1229 12.5931 13.2402 11.8255 14.2446C11.108 15.1776 10.3416 16.072 9.52939 16.9238C8.71721 16.072 7.95076 15.1777 7.2333 14.2446C6.46575 13.2403 5.71605 12.1229 5.16317 11.0024Z" fill="#2B486C" stroke="#2B486C" stroke-width="0.1"/>
<path d="M9.52944 9.97947C8.98106 9.97947 8.45515 9.76163 8.06739 9.37387C7.67963 8.98611 7.46179 8.4602 7.46179 7.91182C7.46179 7.36345 7.67963 6.83753 8.06739 6.44977C8.45515 6.06202 8.98106 5.84417 9.52944 5.84417C10.0778 5.84417 10.6037 6.06202 10.9915 6.44977C11.3792 6.83753 11.5971 7.36345 11.5971 7.91182C11.5971 8.4602 11.3792 8.98611 10.9915 9.37387C10.6037 9.76163 10.0778 9.97947 9.52944 9.97947ZM9.52944 11.1383C10.3851 11.1383 11.2058 10.7984 11.8109 10.1933C12.416 9.5882 12.7559 8.76754 12.7559 7.91182C12.7559 7.05611 12.416 6.23544 11.8109 5.63036C11.2058 5.02528 10.3851 4.68535 9.52944 4.68535C8.67372 4.68535 7.85306 5.02528 7.24798 5.63036C6.6429 6.23544 6.30297 7.05611 6.30297 7.91182C6.30297 8.76754 6.6429 9.5882 7.24798 10.1933C7.85306 10.7984 8.67372 11.1383 9.52944 11.1383Z" fill="#2B486C" stroke="#2B486C" stroke-width="0.1"/>
</g>
<defs>
<clipPath id="clip0_884_2283">
<rect width="18" height="18" fill="white" transform="translate(0 0.5)"/>
</clipPath>
</defs>
</svg>
